<?xml version="1.0" encoding="UTF-8"?>
<svg id="Camada_2" data-name="Camada 2" xmlns="http://www.w3.org/2000/svg" viewBox="0 0 597.1 605.51">
  <defs>
    <style>
      .cls-1 {
        fill: #ff6c0a;
      }
    </style>
  </defs>
  <g id="Logo">
    <g id="Logo-2" data-name="Logo">
      <path class="cls-1" d="M477.98,0l-.29,426.46c0,8.33-1.61,16.18-4.81,23.53-3.2,7.36-7.5,13.74-12.92,19.15-5.42,5.41-11.74,9.64-18.96,12.69-7.23,3.05-15,4.57-23.33,4.56-8.33,0-16.1-1.53-23.32-4.6-7.22-3.06-13.53-7.3-18.94-12.72-5.41-5.42-9.64-11.8-12.69-19.16-3.05-7.36-4.57-15.21-4.57-23.54l.09-127.52h-.09l.08-119.52-119.44-.08-.17,247.04c0,8.33-1.54,16.18-4.6,23.53-3.06,7.36-7.3,13.74-12.71,19.15-5.42,5.41-11.74,9.64-18.96,12.69-7.23,3.05-15,4.57-23.33,4.57-8.33,0-16.1-1.54-23.32-4.6-7.22-3.05-13.53-7.3-18.94-12.71-5.41-5.42-9.64-11.8-12.69-19.17-3.05-7.36-4.57-15.21-4.56-23.53l.09-127.45-119.52-.15L0,426.14c-.01,24.72,4.61,47.97,13.91,69.77,9.28,21.8,22.04,40.83,38.27,57.08,16.23,16.26,35.23,29.04,57.03,38.36,21.79,9.32,45.04,13.98,69.75,14,22.21,.01,43.59-3.86,64.14-11.62,20.55-7.76,39.02-19.13,55.42-34.11,16.37,15,34.75,26.4,55.16,34.19,20.4,7.78,41.7,11.69,63.92,11.7,24.71,.02,47.96-4.62,69.77-13.9,21.8-9.29,40.83-22.05,57.08-38.28,16.26-16.23,29.04-35.23,38.36-57.03,9.32-21.78,13.98-45.04,14-69.75L597.1,.08l-119.11-.08Z"/>
    </g>
  </g>
</svg>